/* XPM */
static char *bitcoin20_xpm[] = {
/* columns rows colors chars-per-pixel */
"20 20 137 2",
"   c #00851D",
".  c #00861F",
"X  c #008721",
"o  c #008822",
"O  c #028824",
"+  c #028924",
"@  c #038924",
"#  c #048925",
"$  c #048A25",
"%  c #058A25",
"&  c #058A26",
"*  c #058A27",
"=  c #068A27",
"-  c #068B27",
";  c #078B27",
":  c #078B28",
">  c #088B28",
",  c #088B29",
"<  c #088C29",
"1  c #098C29",
"2  c #098C2A",
"3  c #0A8C2A",
"4  c #0A8C2B",
"5  c #0B8D2B",
"6  c #0B8D2C",
"7  c #0C8D2C",
"8  c #0D8D2D",
"9  c #0D8E2D",
"0  c #0E8E2E",
"q  c #0F8E2E",
"w  c #0F8F2E",
"e  c #0F8E2F",
"r  c #0F8F2F",
"t  c #108F2F",
"y  c #108F30",
"u  c #119030",
"i  c #119031",
"p  c #129031",
"a  c #129032",
"s  c #139032",
"d  c #139132",
"f  c #139133",
"g  c #149133",
"h  c #159133",
"j  c #159134",
"k  c #169235",
"l  c #179235",
"z  c #179236",
"x  c #199337",
"c  c #1A9438",
"v  c #1B9439",
"b  c #1D953B",
"n  c #20973E",
"m  c #239840",
"M  c #249841",
"N  c #299B45",
"B  c #299B46",
"V  c #2C9C48",
"C  c #2F9D4A",
"Z  c #2F9D4B",
"A  c #2F9E4A",
"S  c #2F9E4B",
"D  c #309E4B",
"F  c #309E4C",
"G  c #319F4C",
"H  c #329F4D",
"J  c #339F4E",
"K  c #35A150",
"L  c #38A252",
"P  c #42A65B",
"I  c #47A95F",
"U  c #4BAB63",
"Y  c #4DAB64",
"T  c #4EAC65",
"R  c #54AF6A",
"E  c #58B16E",
"W  c #5CB271",
"Q  c #5CB371",
"!  c #5CB372",
"~  c #5DB373",
"^  c #5EB373",
"/  c #5EB473",
"(  c #60B475",
")  c #61B576",
"_  c #62B676",
"`  c #65B779",
"'  c #69B97C",
"]  c #69B97D",
"[  c #6AB97D",
"{  c #73BE85",
"}  c #7EC38F",
"|  c #80C491",
" . c #81C492",
".. c #85C695",
"X. c #86C695",
"o. c #87C797",
"O. c #88C898",
"+. c #89C898",
"@. c #8ECA9D",
"#. c #8FCA9E",
"$. c #90CB9F",
"%. c #92CCA1",
"&. c #9AD0A7",
"*. c #9DD1AA",
"=. c #A0D3AD",
"-. c #A3D4AF",
";. c #A8D6B3",
":. c #AAD7B5",
">. c #AFD9B9",
",. c #B0DABB",
"<. c #B2DBBC",
"1. c #B6DCBF",
"2. c #B7DDC1",
"3. c #B9DEC2",
"4. c #C5E4CD",
"5. c #CBE7D2",
"6. c #CCE7D3",
"7. c #D4EAD9",
"8. c #D5EBDA",
"9. c #D7ECDC",
"0. c #DAEEDF",
"q. c #DDEFE2",
"w. c #DEF0E3",
"e. c #E3F2E6",
"r. c #E9F5EC",
"t. c #EBF6EE",
"y. c #EDF6EF",
"u. c #EEF7F0",
"i. c #EEF7F1",
"p. c #F0F8F2",
"a. c #F1F8F3",
"s. c #F1F9F3",
"d. c #F5FAF7",
"f. c #F9FCFA",
"g. c #FDFEFE",
"h. c gray100",
"j. c None",
/* pixels */
"j.j.j.j.j.j.j.) Z j j C ( j.j.j.j.j.j.j.",
"j.j.j.j.j.G = : r g g r : = D j.j.j.j.j.",
"j.j.j.j.: 7 g d 1 9 p g g g 7 : j.j.j.j.",
"j.j.j.+ p g s c W L z > 1 g g p O j.j.j.",
"j.j.; p g g 9 H g.a.q.=.] p d g p ; j.j.",
"j.G 7 g g g , / t.&.<.y.3.. p g g 6 F j.",
"j.= g g g s = @.i.m % c { o.b i g g & j.",
"_ : g g g p 1 6.4.2 p # *.p.a 7 j g : ^ ",
"A q g d t >.2.e.-.b j d l R $.J e g q C ",
"h g g p l ;.0.a.s.r.M t $ [ h.U 3 g d x ",
"g g g g g X  .t.} O.z a < :.w.v u g d x ",
"C 0 g g f 4 ,.9.8 = d 7 k 7.1.6 g g q C ",
") : g g y n u.=.o i k B P h.X.& g g : ~ ",
"j.* g g 5 I s.%.V 5 D h.#.Y K r g g & j.",
"j.F 6 g > ` p.d.f.8.| +.T o r j g 6 S j.",
"j.j.- p g l N E ..5.'   r j g g a ; j.j.",
"j.j.j.+ a d w 1 ; 0 g g g g g p @ j.j.j.",
"j.j.j.j.: 7 g g g d d g g g 7 : j.j.j.j.",
"j.j.j.j.j.D = > r d d r > = S j.j.j.j.j.",
"j.j.j.j.j.j.j.! S x x A Q j.j.j.j.j.j.j."
};
