/* XPM */
static char *bitcoin48_xpm[] = {
/* columns rows colors chars-per-pixel */
"48 48 78 1",
"  c #00861E",
". c #008721",
"X c #058A26",
"o c #078B28",
"O c #0C8D2C",
"+ c #108F2F",
"@ c #11902F",
"# c #108F30",
"$ c #149133",
"% c #199336",
"& c #1C953A",
"* c #21973C",
"= c #23983E",
"- c #269941",
"; c #2A9C45",
": c #2E9E49",
"> c #319F4C",
", c #34A14D",
"< c #37A152",
"1 c #3BA353",
"2 c #3FA558",
"3 c #40A657",
"4 c #41A659",
"5 c #45A95C",
"6 c #48AA5E",
"7 c #4BAC61",
"8 c #51AE66",
"9 c #54AF69",
"0 c #56B06A",
"q c #5BB36E",
"w c #5DB471",
"e c #62B674",
"r c #65B875",
"t c #64B779",
"y c #66B879",
"u c #6BBB7B",
"i c #71BE7F",
"p c #73BE83",
"a c #76C084",
"s c #78C187",
"d c #7BC28A",
"f c #81C58E",
"g c #85C692",
"h c #87C893",
"j c #8AC996",
"k c #8DCA99",
"l c #91CC9C",
"z c #95CEA1",
"x c #9BD1A5",
"c c #9ED2A8",
"v c #A3D5AC",
"b c #A8D7AF",
"n c #A3D4B0",
"m c #A8D7B1",
"M c #ADD9B4",
"N c #B0DBB6",
"B c #B5DDBB",
"V c #BBE0BF",
"C c #B9DFC0",
"Z c #BEE1C2",
"A c #C2E4C6",
"S c #C5E5CA",
"D c #C9E7CD",
"F c #CBE8CE",
"G c #CCE7D1",
"H c #CDE8D1",
"J c #D2EBD5",
"K c #D6ECD9",
"L c #DBEFDD",
"P c #DEF0DF",
"I c #DEF0E1",
"U c #E4F3E5",
"Y c #E7F5E8",
"T c #EBF6EC",
"R c #F5FBF5",
"E c #F8FCF7",
"W c #FFFFFF",
"Q c None",
/* pixels */
"QQQQQQQQQQQQQQQQQQQd0<$oo$>0snQQQQQQQQQQQQQQQQQQ",
"QQQQQQQQQQQQQQQQ5%$:6ujllji7:$$4QQQQQQQQQQQQQQQQ",
"QQQQQQQQQQQQQQ&$7hvxs075470azvk9$$QQQQQQQQQQQQQQ",
"QQQQQQQQQQQQ&&pxh6%OoOOOOOOoO$2gxd-$QQQQQQQQQQQQ",
"QQQQQQQQQQ6XpMu%oO$$$$$$$$$$$$Oo$eMdX<QQQQQQQQQQ",
"QQQQQQQQQ%;Md%o$$$$$$$$$$$$$$$$$$o$pB<OQQQQQQQQQ",
"QQQQQQQQX9B4X$$$$$$$$$$$$$$$$$$$$$$X,NyXQQQQQQQQ",
"QQQQQQQoub&O$$$$$$$OO$$$$$$$$$$$$$$$O$xd.QQQQQQQ",
"QQQQQQXivOO$$$$$$$O37%OOO+$$$$$$$$$$$#okf QQQQQQ",
"QQQQQ$0bO#$$$$$$$$oMWINr7-$ooO$$$$$$$$$OcuOQQQQQ",
"QQQQ7;B&O$$$$$$$$$%LWWUJWTBrq,$$$$$$$$$#$N1<QQQQ",
"QQQQXM4O$$$$$$$$$O1WWWJTWWLYWEM$$$$$$$$$O>BOQQQQ",
"QQQ&pdX$$$$$$$$$$O9FZKAWWWJRWWZO$$$$$$$$$XujOQQQ",
"QQQ&M%$$$$$$$$$$$ocWUJ7qxJMWWWfX$$$$$$$$$$#v-QQQ",
"QQ&auo$$$$$$$$$$$$KWWR=Xo$=0xA,.oO$$$$$$$$owkOQQ",
"QQ$c%$$$$$$$$$$$O;RWWF+$$$#oXOkj0,$$$$$$$$$$b&QQ",
"Q58kX$$$$$$$$$$$O7DASdo$$$$$+=RWWJ$$$$$$$$$Xsr>Q",
"Q$j6O$$$$$$$$$$$oxWRL5O$$$$$O7WWWvo$$$$$$$$O,xOQ",
"Q$b%$$$$$$$$#XoOODWWW,O$$$$$oiEWWtX$$$$$$$$$#b&z",
"d:xO$$$$$$$O>g0:&LWWH@$$$$$$$%,ux1XXO$$$$$$$ok1y",
"q7so$$$$$$$XpWWRvZSSs.oO$$$$$$OXXBBg8$$$$$$$oer4",
"<u0O$$$$$$$oxWWWHWWTvmp1&$$$$$$O;RWWSO$$$$$$O7h;",
"$j7O$$$$$$$+DWWYSWWTSWWE6O$$$$$orWWWlX$$$$$$O1z&",
"ol5O$$$$$$$$1ucvSEWLKWWY*#$$$$$opKTWeo$$$$$$+,x$",
"ol4O$$$$$$$$Oo.1ASScPWWSO$$$$$$OBJZZ-O$$$$$$+>x$",
"$k7O$$$$$$$$$$XpWWEp%6srO$$$$$O;RWWH+$$$$$$$O1z%",
">i0O$$$$$$$$$$ovWWW8XOoO$$$$$$o8WWWvo$$$$$$$O6j-",
"07ao$$$$$$$$$$@MTWT&#$$$$$$$$$oeKLEsX$$$$$$$owy2",
"d:xO$$$$$$$$$O<FADxO$$$$$$$$$$ovYAS,O$$$$$$$oj3t",
"Q$m$$$$$$$$$$owWWWjX$$$$$$#O$$%IWWU%$$$$$$$$Ov&k",
"Q$l4O$$$$$$$$ozWWW8O$$$$$$=:O 4WWWCO$$$$$$$#:cOQ",
"Q40ho$$$$$$$$@mLER-O$$$$$odRZh7vJRho$$$$$$$opu:Q",
"QQ$c$$$$$$$$O;KASm=OoOO$$OZWWW,.$,-$$$$$$$$$v=QQ",
"QQ$deo$$$$$$O7WWWBLSx6;$X&RWWI%$$O#$$$$$$$o9loQQ",
"QQQ-M$$$$$$$XxWWWVWWWVTKx7xGRMo$$$$$$$$$$$Ox:wQQ",
"QQQ$dpo$$$$$OfJEEPWWEFWWWe +,>#$$$$$$$$$$oeloQQQ",
"QQQQXB,O$$$$$O$,qgSEYUWWE,O$OO$$$$$$$$$$O-B$QQQQ",
"QQQQ1<N$#$$$$$$OooO,4aSTH$$$$$$$$$$$$$$$Ob7;QQQQ",
"QQQQQOyxo$$$$$$$$$$OOoO-:$$$$$$$$$$$$$$oldXQQQQQ",
"QQQQQQ.dkO#$$$$$$$$$$$$OO$$$$$$$$$$$$$odk.QQQQQQ",
"QQQQQQQ.fc$O$$$$$$$$$$$$$$$$$$$$$$$$OOlk QQQQQQQ",
"QQQQQQQQ.uN>X$$$$$$$$$$$$$$$$$$$$$$o-bd.QQQQQQQQ",
"QQQQQQQQQO1Bu#o$$$$$$$$$$$$$$$$$$oOeB7XQQQQQQQQQ",
"QQQQQQQQQQ<Ojvq$oO$$$$$$$$$$$$#o$9xl$;QQQQQQQQQQ",
"QQQQQQQQQQQQO-jvp,$ooOOOOOOooO;pvl:oQQQQQQQQQQQQ",
"QQQQQQQQQQQQQQO&exvjw71>>16qhvxy=OwQQQQQQQQQQQQQ",
"QQQQQQQQQQQQQQQQ>O&1ehlxxzjy2&O:QQQQQQQQQQQQQQQQ",
"QQQQQQQQQQQQQQQQQQzy4;%$$%-2ekQQQQQQQQQQQQQQQQQQ"
};
