/* XPM */
static char *bitcoin32_xpm[] = {
/* columns rows colors chars-per-pixel */
"32 32 79 1",
"  c #007300",
". c #007C0C",
"X c #007E10",
"o c #00841B",
"O c #008721",
"+ c #038923",
"@ c #088925",
"# c #078B28",
"$ c #0C8D2B",
"% c #118F2E",
"& c #10902F",
"* c #0F8F30",
"= c #118F31",
"- c #0F9030",
"; c #149133",
": c #189337",
"> c #1D953B",
", c #21973E",
"< c #22983F",
"1 c #229740",
"2 c #259942",
"3 c #299B44",
"4 c #2D9D49",
"5 c #319F4D",
"6 c #34A04F",
"7 c #35A150",
"8 c #3BA355",
"9 c #3EA559",
"0 c #41A65A",
"q c #45A85D",
"w c #47A960",
"e c #4BAB62",
"r c #50AD67",
"t c #5AAB64",
"y c #55AF6B",
"u c #55B06D",
"i c #5BB06E",
"p c #5DB372",
"a c #62B576",
"s c #65B779",
"d c #6AB97E",
"f c #6EBB82",
"g c #71BC85",
"h c #77C089",
"j c #7CC28E",
"k c #7FC390",
"l c #83C493",
"z c #8CCA9C",
"x c #96CEA5",
"c c #99CFA7",
"v c #9ED1AA",
"b c #A1D3AD",
"n c #A4D4B0",
"m c #A9D7B5",
"M c #AED9B8",
"N c #B3DCBD",
"B c #B7DEC0",
"V c #B9DFC3",
"C c #BDE0C5",
"Z c #BFE2C9",
"A c #C4E4CC",
"S c #C8E5CE",
"D c #C7E5D0",
"F c #C9E6D0",
"G c #CDE8D3",
"H c #D0E9D7",
"J c #D4EBDA",
"K c #D9EDDE",
"L c #DEEFE2",
"P c #DFF0E3",
"I c #E1F1E5",
"U c #E7F3EA",
"Y c #EAF5ED",
"T c #EFF7F1",
"R c #EFF8F0",
"E c #F4FAF5",
"W c #F7FCF8",
"Q c #FCFEFD",
"! c None",
/* pixels */
"!!!!!!!!!!!!d9,;;>8d!!!!!!!!!!!!",
"!!!!!!!!!!3##$;;;;$##3!!!!!!!!!!",
"!!!!!!!!,+$;;;;;;;;;;$+>!!!!!!!!",
"!!!!!!w@$;;;;;;;;;;;;;;$@q!!!!!!",
"!!!!!7+$;;;;$++#$;;;;;;;$+7!!!!!",
"!!!!7+%;;;;$<95;+OO+$;;;;&+5!!!!",
"!!!w+%;;;;:oiKJvjy4:*;;;;;;+q!!!",
"!!!@$;;;;;;ogTQWWISNp$$;;;;$@!!!",
"!!,$;;;;;:#$zTSNKRQQj.$;;;;;$>!!",
"!!+;;;;;;:o3CQb48sxmyo#;;;;;;+!!",
"!3$;;;;;;>o0DWj+O#%9zxe$$;;;;$2!",
"!#;;;;;;#oXfYIu+%#oyWQjo$;;;;;#b",
"f#;;;;;=3<%zQA3O;;$qNAy.+;;;;;#s",
"9$;;;;#=lBxBEb<O$;;;1rzj8$=;;;$8",
",;;;;:O,AQQYYSmk4$:$o0IQh+$;;;;1",
";;;;;;#>fbAUUWQP9O:$$sEPpo;;;;;:",
";;;;;;;;+$lYFvVc3#;$:zWC4O;;;;;:",
">;;;;;;:o#vQN2,4;=;#3NQM>O:;;;;1",
"9$;;;;;:o6VWz;o+;;$+8FEl$#;;;;$8",
"d#;;;;;;opKRa$;:;;+OsWYpo;;;;;#s",
"!$;;;;;$ohWL0o#$$8s0jUJeo;;;;;#b",
"!3$;;;:+:xWCr>;++zQZits,#;;;;$2!",
"!!+;;;:o8HQIFMlp0xYA3 O%;;;;;+!!",
"!!>$;;;O8NKUQQQWmeay;$;;;;;;$>!!",
"!!!@$;;;;38pznGRn$.#;;;;;;;$@!!!",
"!!!q+;;:$OoO$:8dq$-%;;;;;;;O0!!!",
"!!!!6+&;;;;;#+OO$;;;;;;;;&+5!!!!",
"!!!!!5+$;;;;;;;==;;;;;;;$+5!!!!!",
"!!!!!!q@$;;;;;;;;;;;;;;$@0!!!!!!",
"!!!!!!!!>+$;;;;;;;;;;$+>!!!!!!!!",
"!!!!!!!!!!2##$;;;;$##2!!!!!!!!!!",
"!!!!!!!!!!!ba8<::<8av!!!!!!!!!!!"
};
