/* XPM */
static const char *bitcoin80_xpm[] = {
/* columns rows colors chars-per-pixel */
"80 80 122 2",
"   c #007C0C",
".  c #007F11",
"X  c #028115",
"o  c #098216",
"O  c #01841C",
"+  c #0B841C",
"@  c #0B881F",
"#  c #10861F",
"$  c #018721",
"%  c #0E8720",
"&  c #048925",
"*  c #0B8924",
"=  c #068B28",
"-  c #0C8D2C",
";  c #128925",
":  c #1A8C26",
">  c #118E2D",
",  c #1A8D2C",
"<  c #0F902C",
"1  c #14902F",
"2  c #0F8F30",
"3  c #118F30",
"4  c #1C8F31",
"5  c #149133",
"6  c #1A9336",
"7  c #1D953A",
"8  c #239236",
"9  c #22963B",
"0  c #29953A",
"q  c #23993E",
"w  c #289A3F",
"e  c #259941",
"r  c #2A9B44",
"t  c #2E9E49",
"y  c #379D45",
"u  c #389C46",
"i  c #319E4B",
"p  c #33A04D",
"a  c #3AA14E",
"s  c #37A150",
"d  c #3BA353",
"f  c #3EA658",
"g  c #40A24F",
"h  c #41A656",
"j  c #48A354",
"k  c #43A75A",
"l  c #4BA759",
"z  c #45A95C",
"x  c #4AAA5F",
"c  c #50AA5E",
"v  c #47A860",
"b  c #4CAC62",
"n  c #52AE66",
"m  c #5AAF67",
"M  c #54AF68",
"N  c #59AF6A",
"B  c #54B065",
"V  c #56B06A",
"C  c #5AB26C",
"Z  c #5EB471",
"A  c #61B16C",
"S  c #63B673",
"D  c #66B877",
"F  c #68B877",
"G  c #65B778",
"H  c #66B878",
"J  c #6BBA7C",
"K  c #71BC7E",
"L  c #6DBB80",
"P  c #73BE83",
"I  c #76C085",
"U  c #79C187",
"Y  c #7CC28A",
"T  c #81C58D",
"R  c #85C693",
"E  c #88C792",
"W  c #86C894",
"Q  c #8BCA96",
"!  c #8ECB99",
"~  c #92CD9C",
"^  c #96D09E",
"/  c #95CEA1",
"(  c #98CFA2",
")  c #97D0A1",
"_  c #9CD2A5",
"`  c #9DD2A8",
"'  c #A1D4A7",
"]  c #A3D5AB",
"[  c #A8D6AE",
"{  c #A6D8AF",
"}  c #AAD8AF",
"|  c #A4D5B0",
" . c #ACD9B3",
".. c #AFDBB8",
"X. c #B1DBB6",
"o. c #B4DDBB",
"O. c #B9DFBF",
"+. c #BAE0BE",
"@. c #BBDFC2",
"#. c #BDE1C3",
"$. c #C1E3C5",
"%. c #C5E5CA",
"&. c #C9E6CD",
"*. c #CBE8CE",
"=. c #CAE7D0",
"-. c #CEE9D1",
";. c #D2EBD5",
":. c #D6ECD9",
">. c #DAEEDC",
",. c #DDF0DF",
"<. c #DDEFE0",
"1. c #DFF1E1",
"2. c #E3F2E4",
"3. c #E7F4E9",
"4. c #EBF6EC",
"5. c #EDF8EF",
"6. c #EEF7F0",
"7. c #EFF8F0",
"8. c #F3FAF3",
"9. c #F7FCF8",
"0. c #FEFFFE",
"q. c None",
/* pixels */
"q.q.q.q.q.q.q.q.q.q.q.q.q.q.q.q.q.q.q.q.q.q.q.q.q.q.q.q.q.q.q.q.q.q.q.q.q.q.q.q.q.q.q.q.q.q.q.q.q.q.q.q.q.q.q.q.q.q.q.q.q.q.q.q.q.q.q.q.q.q.q.q.q.q.q.q.q.q.q.q.",
"q.q.q.q.q.q.q.q.q.q.q.q.q.q.q.q.q.q.q.q.q.q.q.q.q.q.q.q.q.q.q.q.q.q.q.q.q.q.q.q.q.q.q.q.q.q.q.q.q.q.q.q.q.q.q.q.q.q.q.q.q.q.q.q.q.q.q.q.q.q.q.q.q.q.q.q.q.q.q.q.",
"q.q.q.q.q.q.q.q.q.q.q.q.q.q.q.q.q.q.q.q.q.q.q.q.q.q.q.q.q.q.q.q.q.q.q.q.q.q.q.q.q.q.q.q.q.q.q.q.q.q.q.q.q.q.q.q.q.q.q.q.q.q.q.q.q.q.q.q.q.q.q.q.q.q.q.q.q.q.q.q.",
"q.q.q.q.q.q.q.q.q.q.q.q.q.q.q.q.q.q.q.q.q.q.q.q.q.q.q.q.q.q.q.q.q.q.q.q.q.q.q.q.q.q.q.q.q.q.q.q.q.q.q.q.q.q.q.q.q.q.q.q.q.q.q.q.q.q.q.q.q.q.q.q.q.q.q.q.q.q.q.q.",
"q.q.q.q.q.q.q.q.q.q.q.q.q.q.q.q.q.q.q.q.q.q.q.q.q.q.q.q.q.q.q.q.q.q.q.q.q.q.q.q.q.q.q.q.q.q.q.q.q.q.q.q.q.q.q.q.q.q.q.q.q.q.q.q.q.q.q.q.q.q.q.q.q.q.q.q.q.q.q.q.",
"q.q.q.q.q.q.q.q.q.q.q.q.q.q.q.q.q.q.q.q.q.q.q.q.q.q.q.q.q.q.q.q.( L b i 6 - - - - 6 t x J / q.q.q.q.q.q.q.q.q.q.q.q.q.q.q.q.q.q.q.q.q.q.q.q.q.q.q.q.q.q.q.q.q.q.",
"q.q.q.q.q.q.q.q.q.q.q.q.q.q.q.q.q.q.q.q.q.q.q.q.q.q.q.q.q.q.r - & & - > 6 7 7 7 7 6 3 - & & = e Z q.q.q.q.q.q.q.q.q.q.q.q.q.q.q.q.q.q.q.q.q.q.q.q.q.q.q.q.q.q.q.",
"q.q.q.q.q.q.q.q.q.q.q.q.q.q.q.q.q.q.q.q.q.q.q.q.q.q.q.9 o * 9 d b S U Q / _ ' ' _ ) Q Y D b f e * o 7 q.q.q.q.q.q.q.q.q.q.q.q.q.q.q.q.q.q.q.q.q.q.q.q.q.q.q.q.q.",
"q.q.q.q.q.q.q.q.q.q.q.q.q.q.q.q.q.q.q.q.q.q.q.q.d ; O 9 C ~ +.O.] ! U F C b b b b V D U Q ] O.#._ F r O # t q.q.q.q.q.q.q.q.q.q.q.q.q.q.q.q.q.q.q.q.q.q.q.q.q.q.",
"q.q.q.q.q.q.q.q.q.q.q.q.q.q.q.q.q.q.q.q.q.q.s o O a T +.$.] K z r 6 5 - - - - - - - - 3 6 r h F _ $.#.Q z * X r q.q.q.q.q.q.q.q.q.q.q.q.q.q.q.q.q.q.q.q.q.q.q.q.",
"q.q.q.q.q.q.q.q.q.q.q.q.q.q.q.q.q.q.q.q.q.+ O c Q {  .Y k 9 - & = = - - - - - - - - - - = = = - 7 d P {  .~ m * o N q.q.q.q.q.q.q.q.q.q.q.q.q.q.q.q.q.q.q.q.q.q.",
"q.q.q.q.q.q.q.q.q.q.q.q.q.q.q.q.q.q.q.8 . g ' O.W M t 2 $ & - 3 5 5 5 5 5 5 5 5 5 5 5 5 5 5 3 - & $ - r b Y o. .c . , q.q.q.q.q.q.q.q.q.q.q.q.q.q.q.q.q.q.q.q.q.",
"q.q.q.q.q.q.q.q.q.q.q.q.q.q.q.q.q.Z . X K $.{ Z 7 = & = 3 5 5 5 5 5 5 5 5 5 5 5 5 5 5 5 5 5 5 5 5 5 - & & 6 n _ $.Y ;   v q.q.q.q.q.q.q.q.q.q.q.q.q.q.q.q.q.q.q.",
"q.q.q.q.q.q.q.q.q.q.q.q.q.q.q.q.d X u / #.U e = = - 5 5 5 5 5 5 5 5 5 5 5 5 5 5 5 5 5 5 5 5 5 5 5 5 5 5 - = & 7 J @.] j X r q.q.q.q.q.q.q.q.q.q.q.q.q.q.q.q.q.q.",
"q.q.q.q.q.q.q.q.q.q.q.q.q.q.q.0 X b #.' z = & - 5 5 5 5 5 5 5 5 5 5 5 5 5 5 5 5 5 5 5 5 5 5 5 5 5 5 5 5 5 5 2 = = d ~ $.S X 6 q.q.q.q.q.q.q.q.q.q.q.q.q.q.q.q.q.",
"q.q.q.q.q.q.q.q.q.q.q.q.q.q.9 X G -.! 5 O - 5 5 5 5 5 5 5 5 5 5 5 5 5 5 5 5 5 5 5 5 5 5 5 5 5 5 5 5 5 5 5 5 5 5 - $ = Y ;.Y @ > q.q.q.q.q.q.q.q.q.q.q.q.q.q.q.q.",
"q.q.q.q.q.q.q.q.q.q.q.q.q.9 @ I &.W & $ 5 5 5 5 5 5 5 5 5 5 5 5 - = - - > 5 5 5 5 5 5 5 5 5 5 5 5 5 5 5 5 5 5 5 5 5 = O P *.R ; > q.q.q.q.q.q.q.q.q.q.q.q.q.q.q.",
"q.q.q.q.q.q.q.q.q.q.q.q.9 X I -.S O = 6 5 5 5 5 5 5 5 5 5 5 2 5 t i 6 - = - - - - 3 5 5 5 5 5 5 5 5 5 5 5 5 5 5 5 5 6 - X x %.W % > q.q.q.q.q.q.q.q.q.q.q.q.q.q.",
"q.q.q.q.q.q.q.q.q.q.q.h . D *.S   - 6 5 5 5 5 5 5 5 5 5 5 5 & e _ #.! F k e 5 - = = = - - 3 5 5 5 5 5 5 5 5 5 5 5 5 5 6 3   n ;.Y o r q.q.q.q.q.q.q.q.q.q.q.q.q.",
"q.q.q.q.q.q.q.q.q.q.Z X b -.W O - 6 5 5 5 5 5 5 5 5 5 5 5 5 O h 2.0.0.0.>.^ J J x s e 5 = & = - > 5 5 5 5 5 5 5 5 5 5 5 6 2 X P ;.F X k q.q.q.q.q.q.q.q.q.q.q.q.",
"q.q.q.q.q.q.q.q.q.q.. y #.~ & = 6 5 5 5 5 5 5 5 5 5 5 5 5 - $ S 9.0.0.0.9.-.2.0.2.;.#.J C h 7 - & - 5 5 5 5 5 5 5 5 5 5 5 6 - O P %.l   q.q.q.q.q.q.q.q.q.q.q.q.",
"q.q.q.q.q.q.q.q.q.8 o ) ] 5 $ 6 5 5 5 5 5 5 5 5 5 5 5 5 6 = - Q 0.0.0.0.,. .7.0.0.0.0.+.>.1.#.) S r - 5 5 5 5 5 5 5 5 5 5 5 6 = & ~  .> , q.q.q.q.q.q.q.q.q.q.q.",
"q.q.q.q.q.q.q.q.q.. K #.z O 5 5 5 5 5 5 5 5 5 5 5 5 5 5 6 $ 9 ..0.0.0.0.:. .0.0.0.0.:.O.5.0.0.0.2.Z $ - 5 5 5 5 5 5 5 5 5 5 5 5 $ p #.! X v q.q.q.q.q.q.q.q.q.q.",
"q.q.q.q.q.q.q.q.+ g %.Y = - 5 5 5 5 5 5 5 5 5 5 5 5 5 5 5 & t Q X.$.2.8.;.$.0.0.0.0.o.&.9.0.0.0.:.z O 5 5 5 5 5 5 5 5 5 5 5 5 5 3 & S &.A . q.q.q.q.q.q.q.q.q.q.",
"q.q.q.q.q.q.q.d O [  .r & 5 5 5 5 5 5 5 5 5 5 5 5 5 5 5 - $ S 2.2.#.} ^ T ..0.0.0.0.X.,.0.0.0.0.o.q O 6 5 5 5 5 5 5 5 5 5 5 5 5 5 = 6 ( o.; 0 q.q.q.q.q.q.q.q.q.",
"q.q.q.q.q.q.q.o c #.Z = - 5 5 5 5 5 5 5 5 5 5 5 5 5 5 6 & - R 0.0.9.8.-.n , z J ] $._ 2.0.0.0.0.! - & 6 5 5 5 5 5 5 5 5 5 5 5 5 5 3 & b  .C . q.q.q.q.q.q.q.q.q.",
"q.q.q.q.q.q.d O Q W 7 = 5 5 5 5 5 5 5 5 5 5 5 5 5 5 5 6 O w X.0.0.0.0.:.s O 3 5 6 q e k K ] 2.3.C X & 3 5 5 5 5 5 5 5 5 5 5 5 5 5 5 = 5 U _ > e q.q.q.q.q.q.q.q.",
"q.q.q.q.q.q.; d  .V = - 5 5 5 5 5 5 5 5 5 5 5 5 5 5 5 5 O d ;.0.0.0.0.=.q & 5 > - - - - - 6 i z f w - $ $ & 5 5 5 5 5 5 5 5 5 5 5 5 3 & n #.V X q.q.q.q.q.q.q.q.",
"q.q.q.q.q.q.O R  .t & 5 5 5 5 5 5 5 5 5 5 5 5 5 5 5 5 5 O f %.8.0.0.0.o.= - 5 5 5 5 5 5 - - O 6 ( ;.' J n d 6 5 5 5 5 5 5 5 5 5 5 5 5 & e ] ' & n q.q.q.q.q.q.q.",
"q.q.q.q.q.9 9 #.Y - = 5 5 5 5 5 5 5 5 5 5 5 5 5 5 5 5 - & b  .#.$.:.>.T O 5 5 5 5 5 5 5 5 5 $ s =.0.0.3.<.#.6 - 5 5 5 5 5 5 5 5 5 5 5 - = S %.d ; q.q.q.q.q.q.q.",
"q.q.q.q.q.X C %.z $ 5 5 5 5 5 5 5 5 5 5 5 5 5 5 5 5 5 & - W 2.>.#.+.] h $ 6 5 5 5 5 5 5 5 5 $ x ;.0.0.0.0.$.- 5 5 5 5 5 5 5 5 5 5 5 5 5 $ t #.Y X q.q.q.q.q.q.q.",
"q.q.q.q.q.& ( { 9 & 5 5 5 5 5 5 5 5 5 5 5 5 5 5 5 5 6 O q O.0.0.8.3.o.6 = 5 5 5 5 5 5 5 5 - & P 5.0.0.0.7.Y $ 5 5 5 5 5 5 5 5 5 5 5 5 6 = 5 ! ..> k q.q.q.q.q.q.",
"q.q.q.q.r 9 #.P - - 5 5 5 5 5 5 5 5 5 5 5 5 = & - 5 5 O z :.0.0.0.0.o.= > 5 5 5 5 5 5 5 5 = < ~ 0.0.0.0.2.b & 5 5 5 5 5 5 5 5 5 5 5 5 5 - = V $.i 5 q.q.q.q.q.q.",
"q.q.q.q.- d #.z = 2 5 5 5 5 5 5 5 5 5 5 5 5 7 6 = & O X P 8.0.0.0.8.T O 5 5 5 5 5 5 5 5 5 - 5 V ] #.:.8.&.5 $ - 5 5 5 5 5 5 5 5 5 5 5 5 5 = i X.v & | q.q.q.q.q.",
"q.q.q.( & b { r = 5 5 5 5 5 5 5 5 5 5 5 3 5 ! ( J M a 9 I :.4.9.0.2.b O 5 5 5 5 5 5 5 5 5 5 5 - - q x U I p 7 - = = - 5 5 5 5 5 5 5 5 5 5 = 7 ~ Z & P q.q.q.q.q.",
"q.q.q.J & D ! 6 = 5 5 5 5 5 5 5 5 5 5 5 = r 3.0.0.9.:.~ E  .+.&.2.o.6 $ - - 5 5 5 5 5 5 5 5 5 3 - = $ O d %.] P n i 7 5 5 5 5 5 5 5 5 5 5 - 3 Y Y = v q.q.q.q.q.",
"q.q.q.b - Y U 5 - 5 5 5 5 5 5 5 5 5 5 5 & C 4.0.0.0.9.%.1.8.;.o. .U i r 6 - - 5 5 5 5 5 5 5 5 5 5 5 - = J 0.0.0.8.$.b = 5 5 5 5 5 5 5 5 5 - - S ~ 3 p q.q.q.q.q.",
"q.q.q.i > Q J - - 5 5 5 5 5 5 5 5 5 5 5 & ! 9.0.0.0.2.X.2.0.0.0.4. .$.$.R S k q 3 5 5 5 5 5 5 5 5 5 = 6 ` 0.0.0.0.5.b & 3 5 5 5 5 5 5 5 5 - - M _ 6 r q.q.q.q.q.",
"q.q.q.6 6 ) C - - 5 5 5 5 5 5 5 5 5 5 - 5 %.9.0.0.0.:.#.4.0.0.0.>.X.0.0.0.0.2.C = 5 5 5 5 5 5 5 5 5 & t ;.0.0.0.0.%.6 - 5 5 5 5 5 5 5 5 5 > - v  .q 7 q.q.q.q.q.",
"q.q.q.- 7 _ n - - 5 5 5 5 5 5 5 5 5 5 - 7 ~ #.>.8.9.>.,.9.0.0.0.>.O.0.0.0.0.3.b & 3 5 5 5 5 5 5 5 3 & x 5.0.0.0.0._ = - 5 5 5 5 5 5 5 5 5 3 - z o.r 5 q.q.q.q.q.",
"q.q.q.- 9 ' b - - 5 5 5 5 5 5 5 5 5 5 5 5 - 9 k P _ ] #.:.4.0.0.3.:.0.0.0.0.%.r = 5 5 5 5 5 5 5 5 - - Z >.:.;.2.4.J & 5 5 5 5 5 5 5 5 5 5 3 = k o.t 5 q.q.q.q.q.",
"q.q.q.- 7 ' b - - 5 5 5 5 5 5 5 5 5 5 5 5 - = $ $ $ z X.#.} o.+.$.4.0.0.0.0.O.7 - 5 5 5 5 5 5 5 5 & 6 / 4.;.o.X._ p = 5 5 5 5 5 5 5 5 5 5 3 = k o.t 5 q.q.q.q.q.",
"q.q.q.- 7 _ b - - 5 5 5 5 5 5 5 5 5 5 5 5 5 5 5 - O S 2.9.>.:.o.J S ` %.8.0.' = - 5 5 5 5 5 5 5 5 $ i =.0.0.8.2.o.7 - 5 5 5 5 5 5 5 5 5 5 3 - z o.r 5 q.q.q.q.q.",
"q.q.q.6 6 ) C - - 5 5 5 5 5 5 5 5 5 5 5 5 5 5 5 - = ~ 9.0.0.0.;.x + 6 t n P x - 5 5 5 5 5 5 5 5 5 $ k 2.0.0.0.9.=.5 - 5 5 5 5 5 5 5 5 5 5 > - x  .e 6 q.q.q.q.q.",
"q.q.q.t 1 ! D - - 5 5 5 5 5 5 5 5 5 5 5 5 5 5 5 = 7 %.0.0.0.0.%.r $ - - - 3 5 5 5 5 5 5 5 5 5 5 - $ V 6.0.0.0.9.` = 3 5 5 5 5 5 5 5 5 5 5 - - n ' 7 e q.q.q.q.q.",
"q.q.q.v - Y U 1 - 5 5 5 5 5 5 5 5 5 5 5 5 5 5 5 & h 1.0.0.0.0.] > - 5 5 3 - 5 5 5 5 5 5 5 5 5 6 = = P 0.0.0.0.8.J $ 5 5 5 5 5 5 5 5 5 5 5 - - Z ~ 5 i q.q.q.q.q.",
"q.q.q.J & F Q 6 = 5 5 5 5 5 5 5 5 5 5 5 5 5 5 5 & B #.>.4.0.8.Y & - 5 5 5 5 5 5 5 5 5 5 5 5 5 5 = 5 I :.;.-.3.<.d = 5 5 5 5 5 5 5 5 5 5 5 - 3 I T - z q.q.q.q.q.",
"q.q.q./ & n ] r = 5 5 5 5 5 5 5 5 5 5 5 5 5 5 3 - ~ :.#. .$.} z = 3 5 5 5 5 5 5 5 5 5 5 5 5 5 5 $ i O.4.>.$.o.! 5 3 5 5 5 5 5 5 5 5 5 5 5 = 7 ~ S & L q.q.q.q.q.",
"q.q.q.q.= f +.h & 3 5 5 5 5 5 5 5 5 5 5 5 5 5 - 6 &.9.3.:.>._ 9 = 5 5 5 5 5 5 5 5 5 5 5 6 5 5 - $ n 3.0.0.7.>.R $ 5 5 5 5 5 5 5 5 5 5 5 5 = t  .b $ ` q.q.q.q.q.",
"q.q.q.q.e e #.J - - 5 5 5 5 5 5 5 5 5 5 5 5 5 = d <.0.0.0.0.' 5 = 5 5 5 5 5 5 5 5 5 - & = - 5 = = I 9.0.0.0.9.P $ 5 5 5 5 5 5 5 5 5 5 5 - = b #.s > q.q.q.q.q.q.",
"q.q.q.q.Z * ` ` 6 & 5 5 5 5 5 5 5 5 5 5 5 5 5 $ P 6.0.0.0.8.P = - 5 5 5 5 5 5 5 5 5 5 6 - $ $ . 9 ..0.0.0.0.2.p = 5 5 5 5 5 5 5 5 5 5 5 = > R o.5 d q.q.q.q.q.q.",
"q.q.q.q.q.X F %.d $ 5 5 5 5 5 5 5 5 5 5 5 5 5 & _ 8.0.0.0.>.n $ 5 5 5 5 5 5 5 5 5 & d ~ R C s : a #.0.0.0.0.-.- 3 5 5 5 5 5 5 5 5 5 5 5 $ r o.E O q.q.q.q.q.q.q.",
"q.q.q.q.q.6 e $.P - = 5 5 5 5 5 5 5 5 5 5 5 3 5  .:.:.>.5.#.a O 3 5 5 5 5 5 5 5 6 O P 8.0.3.-./ b M _ #.-.;.~ & 5 5 5 5 5 5 5 5 5 5 5 - & C %.k % q.q.q.q.q.q.q.",
"q.q.q.q.q.q.O !  .r $ 5 5 5 5 5 5 5 5 5 5 5 - r &.>.o. .$.~ e @ = = - 3 5 5 5 5 3 $ | 0.0.0.0.8.V   - q p z p - 5 5 5 5 5 5 5 5 5 5 5 & 9 _ [ * z q.q.q.q.q.q.q.",
"q.q.q.q.q.q.+ l ..b & - 5 5 5 5 5 5 5 5 5 5 = k 3.0.8.8.;.~ I D f 9 5 - - - - - & 6 &.0.0.0.0.;.k X = & $ $ = 5 5 5 5 5 5 5 5 5 5 5 3 $ b $.S X q.q.q.q.q.q.q.q.",
"q.q.q.q.q.q.i * ~ Y 6 = 5 5 5 5 5 5 5 5 5 5 $ K 5.0.0.0.1.$.3.0.4.#.W b i i 9 5 O p ;.0.0.0.0.@.r O 6 5 5 5 5 5 5 5 5 5 5 5 5 5 5 5 - > P ] 6 9 q.q.q.q.q.q.q.q.",
"q.q.q.q.q.q.q.X C O.B & 2 5 5 5 5 5 5 5 5 5 =  .9.0.0.0.;.O.4.0.0.0.5.o.>.2.#.Q b h ] >.4.9.0.~ 5 & 6 5 5 5 5 5 5 5 5 5 5 5 5 5 5 5 & h ] S   q.q.q.q.q.q.q.q.q.",
"q.q.q.q.q.q.q.r * X.' 7 = 5 5 5 5 5 5 5 5 - 7 :.0.0.0.0.%.#.8.0.0.0.>.} 0.0.0.0.0.b = w V _ $.S = - 5 5 5 5 5 5 5 5 5 5 5 5 5 5 5 = 5 Q +.6 , q.q.q.q.q.q.q.q.q.",
"q.q.q.q.q.q.q.q.o c %.J = - 5 5 5 5 5 5 5 - q / &.:.4.2.$.>.0.0.0.9.-.X.0.0.0.0.;.p = = $ $ < 5 5 5 5 5 5 5 5 5 5 5 5 5 5 5 5 5 5 & V %.J . q.q.q.q.q.q.q.q.q.q.",
"q.q.q.q.q.q.q.q.V   T $.d $ 5 5 5 5 5 5 5 5 3 - 6 q b F U O.4.9.0.8.%.;.0.0.0.0.' 7 - 5 5 5 3 3 5 5 5 5 5 5 5 5 5 5 5 5 5 5 5 5 $ r o.' X d q.q.q.q.q.q.q.q.q.q.",
"q.q.q.q.q.q.q.q.q., * { ~ = & 6 5 5 5 5 5 5 5 3 - = & & - e b U  .@.} 8.0.0.0.0.Y - - 5 5 5 5 5 5 5 5 5 5 5 5 5 5 5 5 5 5 5 6 - O T o.0 # q.q.q.q.q.q.q.q.q.q.q.",
"q.q.q.q.q.q.q.q.q.q.  j %.Y O - 6 5 5 5 5 5 5 5 5 5 5 5 3 - & * 5 r d I { %.>.2.M - 3 5 5 5 5 5 5 5 5 5 5 5 5 5 5 5 5 5 5 6 3 O Z %.C   V q.q.q.q.q.q.q.q.q.q.q.",
"q.q.q.q.q.q.q.q.q.q.b X S ;.P X 2 6 5 5 5 5 5 5 5 5 5 5 5 5 5 - - = - - 6 t k b q 3 5 5 5 5 5 5 5 5 5 5 5 5 5 5 5 5 5 5 5 5 X C ;.Y o i q.q.q.q.q.q.q.q.q.q.q.q.",
"q.q.q.q.q.q.q.q.q.q.q.r o Y -.x   3 6 5 5 5 5 5 5 5 5 5 5 5 5 5 5 5 3 - - = = = 5 5 5 5 5 5 5 5 5 5 5 5 5 5 5 5 5 5 5 6 5   d -.) % 5 q.q.q.q.q.q.q.q.q.q.q.q.q.",
"q.q.q.q.q.q.q.q.q.q.q.q.5 % R %.n X - 6 5 5 5 5 5 5 5 5 5 5 5 5 5 5 5 5 5 5 > - 5 5 5 5 5 5 5 5 5 5 5 5 5 5 5 5 5 5 5 5 X d o./ 1 * q.q.q.q.q.q.q.q.q.q.q.q.q.q.",
"q.q.q.q.q.q.q.q.q.q.q.q.q.> * W -.P O = 5 5 5 5 5 5 5 5 5 5 5 5 5 5 5 5 5 5 5 5 5 5 5 5 5 5 5 5 5 5 5 5 5 5 5 5 5 5 - O C *./ , O q.q.q.q.q.q.q.q.q.q.q.q.q.q.q.",
"q.q.q.q.q.q.q.q.q.q.q.q.q.q.> % Y ;.P & $ 3 5 5 5 5 5 5 5 5 5 5 5 5 5 5 5 5 5 5 5 5 5 5 5 5 5 5 5 5 5 5 5 5 5 5 5 & O Z ;.^ , O q.q.q.q.q.q.q.q.q.q.q.q.q.q.q.q.",
"q.q.q.q.q.q.q.q.q.q.q.q.q.q.q., X H $.! p & = 3 5 5 5 5 5 5 5 5 5 5 5 5 5 5 5 5 5 5 5 5 5 5 5 5 5 5 5 5 5 5 5 = & r Y $.Y % * q.q.q.q.q.q.q.q.q.q.q.q.q.q.q.q.q.",
"q.q.q.q.q.q.q.q.q.q.q.q.q.q.q.q.r X l { O.S 6 & = - 5 5 5 5 5 5 5 5 5 5 5 5 5 5 5 5 5 5 5 5 5 5 5 5 5 5 3 - & 5 V X...m X 4 q.q.q.q.q.q.q.q.q.q.q.q.q.q.q.q.q.q.",
"q.q.q.q.q.q.q.q.q.q.q.q.q.q.q.q.q.k   , Q %.~ x 5 & & - 5 5 5 5 5 5 5 5 5 5 5 5 5 5 5 5 5 5 5 5 5 5 - & & 3 f W $.) 0   i q.q.q.q.q.q.q.q.q.q.q.q.q.q.q.q.q.q.q.",
"q.q.q.q.q.q.q.q.q.q.q.q.q.q.q.q.q.q.q.: X C X.{ I b e = $ = - 5 5 5 5 5 5 5 5 5 5 5 5 5 5 5 5 - = $ & 9 x L ` o.J X # C q.q.q.q.q.q.q.q.q.q.q.q.q.q.q.q.q.q.q.q.",
"q.q.q.q.q.q.q.q.q.q.q.q.q.q.q.q.q.q.q.q.v X - m ) +.` S t 5 = & = - - - - 3 3 3 3 2 - - - = = = > r C _ #.' S 6 . d q.q.q.q.q.q.q.q.q.q.q.q.q.q.q.q.q.q.q.q.q.q.",
"q.q.q.q.q.q.q.q.q.q.q.q.q.q.q.q.q.q.q.q.q.q.9 . > m _ $.O.Q V i 7 5 - - - - = = = = - - 3 7 r n T X.$.] S 6 . , q.q.q.q.q.q.q.q.q.q.q.q.q.q.q.q.q.q.q.q.q.q.q.q.",
"q.q.q.q.q.q.q.q.q.q.q.q.q.q.q.q.q.q.q.q.q.q.q.q.e + * d U  .#. .~ U S n v z k k z x n Z P ~  .#.X.R k * o 9 q.q.q.q.q.q.q.q.q.q.q.q.q.q.q.q.q.q.q.q.q.q.q.q.q.q.",
"q.q.q.q.q.q.q.q.q.q.q.q.q.q.q.q.q.q.q.q.q.q.q.q.q.q.b ; X > p b S Y ~ _  .o.o.o.o. .' ~ T S b p 5 O * k q.q.q.q.q.q.q.q.q.q.q.q.q.q.q.q.q.q.q.q.q.q.q.q.q.q.q.q.",
"q.q.q.q.q.q.q.q.q.q.q.q.q.q.q.q.q.q.q.q.q.q.q.q.q.q.q.q.q.k 5 & & = 3 6 q r t i r e 6 5 - & & > d q.q.q.q.q.q.q.q.q.q.q.q.q.q.q.q.q.q.q.q.q.q.q.q.q.q.q.q.q.q.q.",
"q.q.q.q.q.q.q.q.q.q.q.q.q.q.q.q.q.q.q.q.q.q.q.q.q.q.q.q.q.q.q.| P v p r 7 5 5 5 5 6 e i z J ` q.q.q.q.q.q.q.q.q.q.q.q.q.q.q.q.q.q.q.q.q.q.q.q.q.q.q.q.q.q.q.q.q.",
"q.q.q.q.q.q.q.q.q.q.q.q.q.q.q.q.q.q.q.q.q.q.q.q.q.q.q.q.q.q.q.q.q.q.q.q.q.q.q.q.q.q.q.q.q.q.q.q.q.q.q.q.q.q.q.q.q.q.q.q.q.q.q.q.q.q.q.q.q.q.q.q.q.q.q.q.q.q.q.q.",
"q.q.q.q.q.q.q.q.q.q.q.q.q.q.q.q.q.q.q.q.q.q.q.q.q.q.q.q.q.q.q.q.q.q.q.q.q.q.q.q.q.q.q.q.q.q.q.q.q.q.q.q.q.q.q.q.q.q.q.q.q.q.q.q.q.q.q.q.q.q.q.q.q.q.q.q.q.q.q.q.",
"q.q.q.q.q.q.q.q.q.q.q.q.q.q.q.q.q.q.q.q.q.q.q.q.q.q.q.q.q.q.q.q.q.q.q.q.q.q.q.q.q.q.q.q.q.q.q.q.q.q.q.q.q.q.q.q.q.q.q.q.q.q.q.q.q.q.q.q.q.q.q.q.q.q.q.q.q.q.q.q."
};
