/* XPM */
static char *bitcoin16_xpm[] = {
/* columns rows colors chars-per-pixel */
"16 16 117 2",
"   c #00851C",
".  c #00861E",
"X  c #00861F",
"o  c #008720",
"O  c #008822",
"+  c #018823",
"@  c #028823",
"#  c #028923",
"$  c #028824",
"%  c #058A26",
"&  c #068A27",
"*  c #068B27",
"=  c #078B28",
"-  c #088B28",
";  c #098C29",
":  c #0A8C2A",
">  c #0A8C2B",
",  c #0B8D2B",
"<  c #0B8D2C",
"1  c #0D8E2D",
"2  c #0E8E2D",
"3  c #0E8E2E",
"4  c #0F8F2E",
"5  c #0F8F2F",
"6  c #108F2F",
"7  c #108F30",
"8  c #109030",
"9  c #119030",
"0  c #119031",
"q  c #129031",
"w  c #139032",
"e  c #139132",
"r  c #139133",
"t  c #149132",
"y  c #149133",
"u  c #159134",
"i  c #159234",
"p  c #169234",
"a  c #179235",
"s  c #189336",
"d  c #189337",
"f  c #199337",
"g  c #1A9438",
"h  c #1B9439",
"j  c #1C953A",
"k  c #1E963C",
"l  c #21973E",
"z  c #22973F",
"x  c #249941",
"c  c #289A44",
"v  c #289B44",
"b  c #2A9B46",
"n  c #2D9C48",
"m  c #2F9E4B",
"M  c #329F4D",
"N  c #34A04E",
"B  c #34A04F",
"V  c #35A04F",
"C  c #35A150",
"Z  c #38A252",
"A  c #39A253",
"S  c #3DA457",
"D  c #40A659",
"F  c #43A75C",
"G  c #48A960",
"H  c #4DAC65",
"J  c #50AD67",
"K  c #53AE69",
"L  c #55AF6B",
"P  c #59B16F",
"I  c #61B576",
"U  c #65B77A",
"Y  c #67B87B",
"T  c #69B97D",
"R  c #6AB97D",
"E  c #6EBB82",
"W  c #6FBC82",
"Q  c #70BC83",
"!  c #71BC83",
"~  c #72BD85",
"^  c #73BE86",
"/  c #74BE86",
"(  c #75BE87",
")  c #7AC08B",
"_  c #80C491",
"`  c #81C492",
"'  c #84C594",
"]  c #8DCA9C",
"[  c #95CDA3",
"{  c #9CD1A9",
"}  c #A0D3AC",
"|  c #A0D3AD",
" . c #A2D3AF",
".. c #A3D4AF",
"X. c #A6D5B2",
"o. c #A6D6B2",
"O. c #AAD8B6",
"+. c #B6DDBF",
"@. c #B7DDC0",
"#. c #B8DEC1",
"$. c #BCE0C5",
"%. c #C6E4CE",
"&. c #CAE6D1",
"*. c #D2EAD8",
"=. c #D4EBDA",
"-. c #D8EDDD",
";. c #DCEFE1",
":. c #E0F0E4",
">. c #E3F2E7",
",. c #E7F4EA",
"<. c #E8F4EB",
"1. c #E9F5EC",
"2. c #EBF6EE",
"3. c #EDF7F0",
"4. c #EEF7F0",
"5. c #F0F8F2",
"6. c None",
/* pixels */
"6.6.6.6.6.^ C p i B ~ 6.6.6.6.6.",
"6.6.6.6.8 % : 7 r 3 % 7 6.6.6.6.",
"6.6.L # q w x k : * 9 q # K 6.6.",
"6.6.@ y y ; | >.+._ v 6 y @ 6.6.",
"6.7 0 y q a *.o.{ -.D : y q 5 6.",
"( % y y + M 4.A   n =.Z > u % ~ ",
"C 1 r t T [ ;.h 1 l ' I j q 3 B ",
"p y q s #.,.1.%.z = c 5.F < e d ",
"i y y q 5 &. .E g & U :.j 9 e d ",
"V 3 y 4 b <.G X 7 . X.$., y 3 B ",
"/ % y ; P 2.m o S ..] R : y % ! ",
"6.6 0 = ) 3.:.@.` } y , u q 5 6.",
"6.6.# e g B Y O.H O e y y # 6.6.",
"6.6.K # 7 2 - - 6 y y q $ J 6.6.",
"6.6.6.6.5 % 3 w e 3 % 4 6.6.6.6.",
"6.6.6.6.6.Q B f f N W 6.6.6.6.6."
};
